HIERARCHY
ROOT Hips
{
	OFFSET -3.958830 18.904000 13.208200
	CHANNELS 6 Xposition Yposition Zposition Zrotation Yrotation Xrotation 
	JOINT LHipJoint
	{
		OFFSET 0.000000 0.000000 0.000000
		CHANNELS 3 Zrotation Yrotation Xrotation
		JOINT LeftUpLeg
		{
			OFFSET 1.800000 -1.400000 0.085000
			CHANNELS 3 Zrotation Yrotation Xrotation
			JOINT LeftLeg
			{
				OFFSET 2.215000 -6.000000 0.000000
				CHANNELS 3 Zrotation Yrotation Xrotation
				JOINT LeftFoot
				{
					OFFSET 2.500000 -6.900000 0.000000
					CHANNELS 3 Zrotation Yrotation Xrotation
					JOINT LeftToeBase
					{
						OFFSET 0.200000 -0.500000 1.950000
						CHANNELS 3 Zrotation Yrotation Xrotation
						End Site
						{
							OFFSET 0.000000 0.000000 0.000000
						}
					}
				}
			}
		}
	}
	JOINT RHipJoint
	{
		OFFSET 0.000000 0.000000 0.000000
		CHANNELS 3 Zrotation Yrotation Xrotation
		JOINT RightUpLeg
		{
			OFFSET -1.800000 -1.400000 0.085000
			CHANNELS 3 Zrotation Yrotation Xrotation
			JOINT RightLeg
			{
				OFFSET -2.215000 -6.000000 0.000000
				CHANNELS 3 Zrotation Yrotation Xrotation
				JOINT RightFoot
				{
					OFFSET -2.500000 -6.900000 0.000000
					CHANNELS 3 Zrotation Yrotation Xrotation
					JOINT RightToeBase
					{
						OFFSET -0.200000 -0.500000 1.950000
						CHANNELS 3 Zrotation Yrotation Xrotation
						End Site
						{
							OFFSET 0.000000 0.000000 0.000000
						}
					}
				}
			}
		}
	}
	JOINT LowerBack
	{
		OFFSET 0.000000 0.000000 0.000000
		CHANNELS 3 Zrotation Yrotation Xrotation
		JOINT Spine
		{
			OFFSET -0.087000 1.940000 -0.288900
			CHANNELS 3 Zrotation Yrotation Xrotation
			JOINT Spine1
			{
				OFFSET 0.000000 1.950000 0.060000
				CHANNELS 3 Zrotation Yrotation Xrotation
				JOINT Neck
				{
					OFFSET 0.000000 0.000000 0.000000
					CHANNELS 3 Zrotation Yrotation Xrotation
					JOINT Neck1
					{
						OFFSET 0.000000 1.600000 0.340000
						CHANNELS 3 Zrotation Yrotation Xrotation
						JOINT Head
						{
							OFFSET 0.000000 1.667000 -0.240000
							CHANNELS 3 Zrotation Yrotation Xrotation
							End Site
							{
								OFFSET 0.000000 0.000000 0.000000
							}
						}
					}
				}
				JOINT LeftShoulder
				{
					OFFSET 0.000000 0.000000 0.000000
					CHANNELS 3 Zrotation Yrotation Xrotation
					JOINT LeftArm
					{
						OFFSET 2.700000 1.550000 -0.730000
						CHANNELS 3 Zrotation Yrotation Xrotation
						JOINT LeftForeArm
						{
							OFFSET 5.450000 0.000000 0.000000
							CHANNELS 3 Zrotation Yrotation Xrotation
							JOINT LeftHand
							{
								OFFSET 3.450000 0.000000 0.000000
								CHANNELS 3 Zrotation Yrotation Xrotation
								JOINT LeftHandIndex1
								{
									OFFSET 0.750000 0.000000 0.000000
									CHANNELS 3 Zrotation Yrotation Xrotation
									End Site
									{
										OFFSET 0.000000 0.000000 0.000000
									}
								}
							}
						}
					}
				}
				JOINT RightShoulder
				{
					OFFSET 0.000000 0.000000 0.000000
					CHANNELS 3 Zrotation Yrotation Xrotation
					JOINT RightArm
					{
						OFFSET -2.700000 1.550000 -0.730000
						CHANNELS 3 Zrotation Yrotation Xrotation
						JOINT RightForeArm
						{
							OFFSET -5.450000 0.000000 0.000000
							CHANNELS 3 Zrotation Yrotation Xrotation
							JOINT RightHand
							{
								OFFSET -3.450000 0.000000 0.000000
								CHANNELS 3 Zrotation Yrotation Xrotation
								JOINT RightHandIndex1
								{
									OFFSET -0.750000 0.000000 0.000000
									CHANNELS 3 Zrotation Yrotation Xrotation
									End Site
									{
										OFFSET 0.000000 0.000000 0.000000
									}
								}
							}
						}
					}
				}
			}
		}
	}
}
MOTION
Frames: 6
Frame Time: 0.016667
1.446610 17.519120 -10.176970 -9.871065 9.564845 -4.036555 -15.087396 12.008842 2.413890 9.406141 -0.150468 -2.804003 -9.675360 5.057284 2.457698 -0.436632 5.041699 3.193073 0.319120 -0.188990 0.181940 18.521842 -8.718108 5.470437 -20.094223 11.124266 -29.508140 67.376299 -22.109541 21.474324 -2.043772 -9.775874 1.081074 -0.052230 0.714630 0.574410 -4.145093 -1.220213 -9.018512 21.884598 -4.517435 24.999814 -3.476746 0.636164 0.997765 1.184270 -0.842626 -13.105330 -0.436391 3.123193 25.721286 -1.555160 1.744400 -9.578150 -2.407392 -7.338485 6.487366 -12.458803 11.318020 -1.083499 8.046926 -1.668275 -1.080716 -4.447858 2.690765 0.640620 0.346090 -0.094810 0.352320 -1.549547 12.445026 7.451971 28.533643 10.500889 -11.112961 -6.872606 68.262792 -6.744519 1.491462 -1.645102 -0.295160 0.288310 0.171640 -0.100970 
1.429740 17.511810 -10.173250 -10.010151 9.216988 -3.348780 -15.085926 11.995666 2.415006 9.384485 -0.251711 -3.296618 -9.475253 4.937072 2.175643 -0.474975 5.028264 3.221379 0.288700 -0.237230 0.168530 18.525232 -8.695703 5.502810 -20.438228 11.031956 -30.069578 67.860095 -22.426671 21.515848 -2.041966 -9.828037 1.077885 -0.061800 0.762190 0.568220 -4.144554 -1.230362 -9.031114 21.835490 -4.356779 24.519675 -3.337811 0.768218 -0.022103 1.083732 -0.840767 -12.812871 -0.446153 3.322679 25.488325 -1.624670 1.863870 -8.982980 -2.106826 -6.270763 5.934028 -12.600208 11.078244 -1.123976 8.478178 -2.605865 -1.082348 -4.476165 2.657641 0.644640 0.373510 -0.122800 0.354880 -1.754563 11.423709 7.357706 28.683435 10.122050 -10.586246 -7.191816 67.885620 -6.558970 1.480244 -1.628174 -0.333490 0.323110 0.193740 -0.107260 
1.405690 17.499200 -10.166270 -10.642578 8.502205 -1.998423 -15.073356 11.983721 2.423370 9.670248 -0.485426 -4.373542 -8.940411 4.672333 1.550024 -0.536433 4.962823 3.261855 0.257300 -0.290060 0.155600 18.537203 -8.662729 5.535674 -20.720664 10.903495 -31.014885 68.309419 -23.030144 21.722327 -2.033486 -9.910646 1.059003 -0.066410 0.813440 0.557810 -4.165890 -1.269467 -9.036768 22.541612 -4.279431 23.395360 -3.414682 0.951224 -2.000788 1.081480 -0.993303 -12.132582 -0.723446 3.901324 25.029378 -1.641350 2.233930 -7.916730 -1.797515 -3.999595 4.767985 -13.047904 10.526196 -1.191385 9.839242 -4.461423 -1.026548 -4.502379 2.666030 0.637920 0.406510 -0.166940 0.351880 -2.241729 9.354936 7.115993 28.785762 9.492768 -9.333470 -5.978002 67.726065 -5.226001 1.481256 -1.654674 -0.377120 0.350320 0.220080 -0.117550 
1.371080 17.488890 -10.164510 -11.212205 7.974819 -0.877932 -15.072989 12.008694 2.448499 9.840279 -0.696254 -5.294946 -8.117399 4.358177 0.837028 -0.594429 4.876317 3.301970 0.226380 -0.343200 0.164620 18.528905 -8.654503 5.526973 -20.716518 10.685096 -31.328882 67.786732 -23.109748 21.697608 -2.004722 -9.885498 1.061344 -0.081060 0.833810 0.558230 -4.148149 -1.352262 -9.042346 22.928228 -4.081026 22.423449 -3.262684 1.169537 -3.494920 1.266196 -0.904018 -11.654891 -0.617011 3.850856 24.976523 -2.629180 2.711840 -7.330280 -1.467675 -2.140565 3.807695 -13.212694 10.144663 -1.256695 10.360968 -6.749624 -1.019057 -4.508928 2.667231 0.646460 0.429450 -0.185020 0.336530 -3.076725 7.574397 6.992058 29.586754 9.075094 -8.517015 -7.436489 66.342703 -5.348560 1.471705 -1.637226 -0.410760 0.361850 0.240720 -0.139250 
1.323230 17.493540 -10.170930 -11.311006 7.112860 -0.626277 -15.119097 12.148796 2.526966 9.857519 -0.718164 -5.250624 -7.603326 4.209335 0.290425 -0.593423 4.882943 3.292972 0.199430 -0.395390 0.167050 18.457337 -8.644988 5.450713 -20.361655 10.600319 -30.390842 65.843557 -22.719131 21.928004 -1.957375 -9.793405 1.075448 -0.115500 0.828390 0.581850 -3.977753 -1.648322 -9.077377 22.112209 -3.837693 23.020294 -2.684098 1.522445 -5.136587 1.394099 -0.723699 -11.656859 -0.344188 4.335197 25.697059 -3.176960 3.640260 -6.821580 -0.848518 -1.037017 3.253206 -13.793570 10.171547 -1.455570 10.549716 -8.093172 -1.005969 -4.521313 2.683785 0.661390 0.436900 -0.184520 0.315090 -4.066059 6.820295 7.219472 30.687610 8.970070 -8.113665 -9.734200 63.785082 -5.885295 1.469461 -1.604551 -0.411700 0.331930 0.264030 -0.158700 
1.272760 17.493100 -10.177880 -11.465824 6.622440 -0.021805 -15.112039 12.188227 2.580905 9.889946 -0.816989 -5.571783 -7.125975 4.013946 -0.296044 -0.573484 4.801223 3.314210 0.201070 -0.388770 0.160720 18.442659 -8.720169 5.367764 -20.017709 10.236432 -29.567448 63.508429 -21.720820 21.467630 -1.875751 -9.578895 1.124400 -0.125170 0.819680 0.591670 -3.966872 -1.652816 -9.065515 21.976265 -3.889124 22.514928 -2.736967 1.471063 -6.027801 1.316528 -0.585806 -11.594186 -0.102337 4.856988 25.995698 -2.973410 4.251590 -6.045790 -0.281249 -0.382521 2.990501 -14.259478 10.073324 -1.590393 10.885121 -8.252342 -0.949018 -4.524962 2.729062 0.640850 0.438330 -0.186910 0.314840 -4.592132 6.158948 7.279874 31.866702 9.239538 -7.604775 -11.816604 60.967750 -6.335908 1.488486 -1.607643 -0.388250 0.294220 0.255660 -0.150530 
